<mxfile host="app.diagrams.net" modified="2022-04-15T07:45:55.383Z" agent="5.0 (Windows NT 10.0; Win64; x64) AppleWebKit/537.36 (KHTML, like Gecko) Chrome/100.0.4896.75 Safari/537.36" etag="wDcM3vsdiRv7xDIRyCTM" version="17.4.4" type="github">
  <diagram id="aV48_O7v04BjNriY2XJj" name="Page-1">
    <mxGraphModel dx="3620" dy="1125" grid="1" gridSize="10" guides="1" tooltips="1" connect="1" arrows="1" fold="1" page="1" pageScale="1" pageWidth="850" pageHeight="1100" math="0" shadow="0">
      <root>
        <mxCell id="0" />
        <mxCell id="1" parent="0" />
        <mxCell id="dH-Tc4P7Z8Kmwp9f1ocL-1" value="" style="edgeStyle=orthogonalEdgeStyle;rounded=0;orthogonalLoop=1;jettySize=auto;html=1;" edge="1" parent="1" source="dH-Tc4P7Z8Kmwp9f1ocL-2" target="dH-Tc4P7Z8Kmwp9f1ocL-4">
          <mxGeometry relative="1" as="geometry" />
        </mxCell>
        <mxCell id="dH-Tc4P7Z8Kmwp9f1ocL-2" value="&lt;div&gt;&lt;span style=&quot;letter-spacing: -0.07px&quot;&gt;&lt;font style=&quot;font-size: 16px&quot;&gt;Navigates to &quot;&lt;b&gt;view history&quot;&lt;/b&gt;&lt;/font&gt;&lt;/span&gt;&lt;br&gt;&lt;/div&gt;" style="rounded=1;whiteSpace=wrap;html=1;fillColor=#FFD966;arcSize=10;" vertex="1" parent="1">
          <mxGeometry x="260" y="275" width="120" height="60" as="geometry" />
        </mxCell>
        <mxCell id="dH-Tc4P7Z8Kmwp9f1ocL-3" value="" style="edgeStyle=orthogonalEdgeStyle;rounded=0;orthogonalLoop=1;jettySize=auto;html=1;" edge="1" parent="1" source="dH-Tc4P7Z8Kmwp9f1ocL-4" target="dH-Tc4P7Z8Kmwp9f1ocL-6">
          <mxGeometry relative="1" as="geometry" />
        </mxCell>
        <mxCell id="dH-Tc4P7Z8Kmwp9f1ocL-4" value="&lt;font style=&quot;font-size: 14px&quot;&gt;&lt;b&gt;Chooses the type of history:&lt;br&gt;1. credential consumption (auth and KYC)&lt;br&gt;2. operations performed&amp;nbsp; around credential (online and offline)&lt;/b&gt;&lt;/font&gt;&lt;span style=&quot;letter-spacing: -0.07px ; background-color: rgb(255 , 255 , 255)&quot;&gt;&lt;br&gt;&lt;/span&gt;" style="rounded=1;whiteSpace=wrap;html=1;fillColor=#FFD966;" vertex="1" parent="1">
          <mxGeometry x="440" y="240" width="180" height="130" as="geometry" />
        </mxCell>
        <mxCell id="dH-Tc4P7Z8Kmwp9f1ocL-5" value="" style="edgeStyle=orthogonalEdgeStyle;rounded=0;orthogonalLoop=1;jettySize=auto;html=1;entryX=0;entryY=0.5;entryDx=0;entryDy=0;" edge="1" parent="1" source="dH-Tc4P7Z8Kmwp9f1ocL-6" target="dH-Tc4P7Z8Kmwp9f1ocL-8">
          <mxGeometry relative="1" as="geometry">
            <mxPoint x="790" y="287.5" as="targetPoint" />
          </mxGeometry>
        </mxCell>
        <mxCell id="dH-Tc4P7Z8Kmwp9f1ocL-6" value="&lt;b style=&quot;font-size: 14px ; letter-spacing: -0.07px&quot;&gt;Chooses the date window of history (from and to)&lt;/b&gt;" style="rounded=1;whiteSpace=wrap;html=1;fillColor=#FFD966;" vertex="1" parent="1">
          <mxGeometry x="697.5" y="265" width="140" height="80" as="geometry" />
        </mxCell>
        <mxCell id="dH-Tc4P7Z8Kmwp9f1ocL-7" value="" style="edgeStyle=orthogonalEdgeStyle;rounded=0;orthogonalLoop=1;jettySize=auto;html=1;fillColor=#FFD966;" edge="1" parent="1" source="dH-Tc4P7Z8Kmwp9f1ocL-8" target="dH-Tc4P7Z8Kmwp9f1ocL-10">
          <mxGeometry relative="1" as="geometry" />
        </mxCell>
        <mxCell id="dH-Tc4P7Z8Kmwp9f1ocL-8" value="&lt;b style=&quot;letter-spacing: -0.07px&quot;&gt;&lt;font style=&quot;font-size: 16px&quot;&gt;Clicks on view history&lt;/font&gt;&lt;/b&gt;" style="rounded=1;whiteSpace=wrap;html=1;fillColor=#FFD966;" vertex="1" parent="1">
          <mxGeometry x="910" y="270" width="120" height="70" as="geometry" />
        </mxCell>
        <mxCell id="dH-Tc4P7Z8Kmwp9f1ocL-9" value="" style="edgeStyle=orthogonalEdgeStyle;rounded=0;orthogonalLoop=1;jettySize=auto;html=1;fillColor=#00CC66;" edge="1" parent="1" source="dH-Tc4P7Z8Kmwp9f1ocL-10" target="dH-Tc4P7Z8Kmwp9f1ocL-12">
          <mxGeometry relative="1" as="geometry" />
        </mxCell>
        <mxCell id="dH-Tc4P7Z8Kmwp9f1ocL-10" value="&lt;b style=&quot;font-size: 14px ; letter-spacing: -0.07px&quot;&gt;History is displayed for the chosen date window&lt;/b&gt;" style="rounded=1;whiteSpace=wrap;html=1;fillColor=#FFD966;" vertex="1" parent="1">
          <mxGeometry x="1100" y="270" width="120" height="70" as="geometry" />
        </mxCell>
        <mxCell id="dH-Tc4P7Z8Kmwp9f1ocL-11" value="" style="edgeStyle=orthogonalEdgeStyle;rounded=0;orthogonalLoop=1;jettySize=auto;html=1;" edge="1" parent="1" source="dH-Tc4P7Z8Kmwp9f1ocL-12" target="dH-Tc4P7Z8Kmwp9f1ocL-13">
          <mxGeometry relative="1" as="geometry" />
        </mxCell>
        <mxCell id="dH-Tc4P7Z8Kmwp9f1ocL-12" value="&#xa;&#xa;&lt;!--StartFragment--&gt;&lt;b style=&quot;font-family: Helvetica; font-size: 14px; font-style: normal; font-variant-ligatures: normal; font-variant-caps: normal; letter-spacing: -0.07px; orphans: 2; text-align: center; text-indent: 0px; text-transform: none; widows: 2; word-spacing: 0px; -webkit-text-stroke-width: 0px; text-decoration-style: initial; text-decoration-color: initial;&quot;&gt;Can choose to export/ download/ print it&lt;/b&gt;&lt;!--EndFragment--&gt;&#xa;&#xa;" style="rounded=1;whiteSpace=wrap;html=1;fillColor=#FFD966;" vertex="1" parent="1">
          <mxGeometry x="1298" y="272.5" width="120" height="65" as="geometry" />
        </mxCell>
        <mxCell id="dH-Tc4P7Z8Kmwp9f1ocL-13" value="&lt;b style=&quot;font-size: 14px ; letter-spacing: -0.07px&quot;&gt;Gets notification over registered email Id and mobile number&lt;/b&gt;" style="rounded=1;whiteSpace=wrap;html=1;fillColor=#FFD966;" vertex="1" parent="1">
          <mxGeometry x="1490" y="272.5" width="120" height="65" as="geometry" />
        </mxCell>
        <mxCell id="dH-Tc4P7Z8Kmwp9f1ocL-14" style="edgeStyle=orthogonalEdgeStyle;rounded=0;orthogonalLoop=1;jettySize=auto;html=1;entryX=0;entryY=0.5;entryDx=0;entryDy=0;fillColor=#00CC66;" edge="1" parent="1" source="dH-Tc4P7Z8Kmwp9f1ocL-15" target="dH-Tc4P7Z8Kmwp9f1ocL-16">
          <mxGeometry relative="1" as="geometry" />
        </mxCell>
        <mxCell id="dH-Tc4P7Z8Kmwp9f1ocL-15" value="&lt;b&gt;&lt;font style=&quot;font-size: 14px&quot;&gt;The resident&lt;/font&gt;&lt;/b&gt;" style="shape=umlActor;verticalLabelPosition=bottom;labelBackgroundColor=#ffffff;verticalAlign=top;html=1;outlineConnect=0;fillColor=#FFE599;" vertex="1" parent="1">
          <mxGeometry x="-400" y="432.5" width="30" height="60" as="geometry" />
        </mxCell>
        <mxCell id="dH-Tc4P7Z8Kmwp9f1ocL-16" value="&lt;div&gt;&lt;font style=&quot;font-size: 18px&quot;&gt;1. Enters UIN/VID&lt;/font&gt;&lt;/div&gt;&lt;div&gt;&lt;font size=&quot;3&quot;&gt;2. Enters captcha&lt;br&gt;&lt;/font&gt;&lt;/div&gt;&lt;span style=&quot;text-align: left&quot;&gt;&lt;font size=&quot;3&quot;&gt;3. Enters OTP&lt;/font&gt;&lt;/span&gt;" style="rounded=1;whiteSpace=wrap;html=1;fillColor=#FF66B3;" vertex="1" parent="1">
          <mxGeometry x="-130" y="417.5" width="150" height="90" as="geometry" />
        </mxCell>
        <mxCell id="dH-Tc4P7Z8Kmwp9f1ocL-17" value="" style="edgeStyle=orthogonalEdgeStyle;rounded=0;orthogonalLoop=1;jettySize=auto;html=1;" edge="1" parent="1" source="dH-Tc4P7Z8Kmwp9f1ocL-18" target="dH-Tc4P7Z8Kmwp9f1ocL-20">
          <mxGeometry relative="1" as="geometry" />
        </mxCell>
        <mxCell id="dH-Tc4P7Z8Kmwp9f1ocL-18" value="&lt;div&gt;&lt;b style=&quot;letter-spacing: -0.07px&quot;&gt;&lt;font style=&quot;font-size: 14px&quot;&gt;Navigates to &quot;lock/unlock an authentication type&quot;&lt;/font&gt;&lt;/b&gt;&lt;br&gt;&lt;/div&gt;" style="rounded=1;whiteSpace=wrap;html=1;fillColor=#66FF66;arcSize=10;" vertex="1" parent="1">
          <mxGeometry x="230" y="426.25" width="140" height="72.5" as="geometry" />
        </mxCell>
        <mxCell id="dH-Tc4P7Z8Kmwp9f1ocL-19" value="" style="edgeStyle=orthogonalEdgeStyle;rounded=0;orthogonalLoop=1;jettySize=auto;html=1;" edge="1" parent="1" source="dH-Tc4P7Z8Kmwp9f1ocL-20" target="dH-Tc4P7Z8Kmwp9f1ocL-22">
          <mxGeometry relative="1" as="geometry" />
        </mxCell>
        <mxCell id="dH-Tc4P7Z8Kmwp9f1ocL-20" value="&lt;b style=&quot;font-size: 14px ; letter-spacing: -0.07px&quot;&gt;Using toggle button, the resident chooses the authentication types that he wants to lock/unlock&lt;/b&gt;" style="rounded=1;whiteSpace=wrap;html=1;fillColor=#66FF66;" vertex="1" parent="1">
          <mxGeometry x="422.5" y="412.5" width="167.5" height="100" as="geometry" />
        </mxCell>
        <mxCell id="dH-Tc4P7Z8Kmwp9f1ocL-21" value="" style="edgeStyle=orthogonalEdgeStyle;rounded=0;orthogonalLoop=1;jettySize=auto;html=1;" edge="1" parent="1" source="dH-Tc4P7Z8Kmwp9f1ocL-22" target="dH-Tc4P7Z8Kmwp9f1ocL-24">
          <mxGeometry relative="1" as="geometry" />
        </mxCell>
        <mxCell id="dH-Tc4P7Z8Kmwp9f1ocL-22" value="&lt;b style=&quot;font-size: 14px ; letter-spacing: -0.07px&quot;&gt;Enters UIN as a additional check&lt;/b&gt;" style="rounded=1;whiteSpace=wrap;html=1;fillColor=#66FF66;" vertex="1" parent="1">
          <mxGeometry x="670" y="412.5" width="167.5" height="100" as="geometry" />
        </mxCell>
        <mxCell id="dH-Tc4P7Z8Kmwp9f1ocL-23" value="" style="edgeStyle=orthogonalEdgeStyle;rounded=0;orthogonalLoop=1;jettySize=auto;html=1;" edge="1" parent="1" source="dH-Tc4P7Z8Kmwp9f1ocL-24" target="dH-Tc4P7Z8Kmwp9f1ocL-26">
          <mxGeometry relative="1" as="geometry" />
        </mxCell>
        <mxCell id="dH-Tc4P7Z8Kmwp9f1ocL-24" value="&lt;b style=&quot;font-size: 14px ; letter-spacing: -0.07px&quot;&gt;Accepts consent to lock/unlock authentication type&lt;/b&gt;" style="rounded=1;whiteSpace=wrap;html=1;fillColor=#66FF66;" vertex="1" parent="1">
          <mxGeometry x="900" y="422.5" width="160" height="80" as="geometry" />
        </mxCell>
        <mxCell id="dH-Tc4P7Z8Kmwp9f1ocL-25" value="" style="edgeStyle=orthogonalEdgeStyle;rounded=0;orthogonalLoop=1;jettySize=auto;html=1;" edge="1" parent="1" source="dH-Tc4P7Z8Kmwp9f1ocL-26" target="dH-Tc4P7Z8Kmwp9f1ocL-27">
          <mxGeometry relative="1" as="geometry" />
        </mxCell>
        <mxCell id="dH-Tc4P7Z8Kmwp9f1ocL-26" value="&lt;b style=&quot;font-size: 14px ; letter-spacing: -0.07px&quot;&gt;Authentication type is locked and relevant message is displayed&lt;/b&gt;" style="rounded=1;whiteSpace=wrap;html=1;fillColor=#66FF66;" vertex="1" parent="1">
          <mxGeometry x="1140" y="425" width="160" height="75" as="geometry" />
        </mxCell>
        <mxCell id="dH-Tc4P7Z8Kmwp9f1ocL-27" value="&lt;b style=&quot;font-size: 14px ; letter-spacing: -0.07px&quot;&gt;Gets notification over registered email Id and mobile number&lt;/b&gt;" style="rounded=1;whiteSpace=wrap;html=1;fillColor=#66FF66;" vertex="1" parent="1">
          <mxGeometry x="1377.5" y="427.5" width="120" height="70" as="geometry" />
        </mxCell>
        <mxCell id="dH-Tc4P7Z8Kmwp9f1ocL-28" value="&lt;b&gt;After successful validation, a session is created&lt;/b&gt;" style="text;html=1;strokeColor=none;fillColor=none;align=center;verticalAlign=middle;whiteSpace=wrap;rounded=0;" vertex="1" parent="1">
          <mxGeometry x="30" y="412.5" width="70" height="20" as="geometry" />
        </mxCell>
        <mxCell id="dH-Tc4P7Z8Kmwp9f1ocL-29" value="" style="edgeStyle=orthogonalEdgeStyle;rounded=0;orthogonalLoop=1;jettySize=auto;html=1;fillColor=#FFFF66;shadow=0;" edge="1" parent="1" target="dH-Tc4P7Z8Kmwp9f1ocL-31">
          <mxGeometry relative="1" as="geometry">
            <mxPoint x="129.99999999999955" y="692.5" as="sourcePoint" />
          </mxGeometry>
        </mxCell>
        <mxCell id="dH-Tc4P7Z8Kmwp9f1ocL-30" value="" style="edgeStyle=orthogonalEdgeStyle;rounded=0;orthogonalLoop=1;jettySize=auto;html=1;fillColor=#FFFF66;shadow=0;" edge="1" parent="1" source="dH-Tc4P7Z8Kmwp9f1ocL-31" target="dH-Tc4P7Z8Kmwp9f1ocL-32">
          <mxGeometry relative="1" as="geometry" />
        </mxCell>
        <mxCell id="dH-Tc4P7Z8Kmwp9f1ocL-31" value="&lt;div&gt;&lt;b style=&quot;letter-spacing: -0.07px&quot;&gt;&lt;font style=&quot;font-size: 14px&quot;&gt;Navigates to &quot;Generate &amp;amp; manage VID&quot;&lt;/font&gt;&lt;/b&gt;&lt;br&gt;&lt;/div&gt;" style="rounded=1;whiteSpace=wrap;html=1;fillColor=#FFFF66;arcSize=10;shadow=0;" vertex="1" parent="1">
          <mxGeometry x="250" y="662.5" width="120" height="60" as="geometry" />
        </mxCell>
        <mxCell id="dH-Tc4P7Z8Kmwp9f1ocL-32" value="&lt;b style=&quot;letter-spacing: -0.07px ; font-size: 15px&quot;&gt;Chooses from the following&lt;br&gt;1. Generate VID&lt;br&gt;2. Revoke VID&lt;/b&gt;&lt;span style=&quot;letter-spacing: -0.07px ; background-color: rgb(255 , 255 , 255)&quot;&gt;&lt;br&gt;&lt;/span&gt;" style="rounded=1;whiteSpace=wrap;html=1;fillColor=#FFFF66;shadow=0;" vertex="1" parent="1">
          <mxGeometry x="452.5" y="642.5" width="157.5" height="100" as="geometry" />
        </mxCell>
        <mxCell id="dH-Tc4P7Z8Kmwp9f1ocL-33" value="" style="edgeStyle=orthogonalEdgeStyle;rounded=0;orthogonalLoop=1;jettySize=auto;html=1;fillColor=#FFFF66;shadow=0;" edge="1" parent="1" source="dH-Tc4P7Z8Kmwp9f1ocL-34" target="dH-Tc4P7Z8Kmwp9f1ocL-36">
          <mxGeometry relative="1" as="geometry" />
        </mxCell>
        <mxCell id="dH-Tc4P7Z8Kmwp9f1ocL-34" value="&lt;b style=&quot;font-size: 14px ; letter-spacing: -0.07px&quot;&gt;Navigates to &quot;Generate VID&quot; and clicks on submit&lt;/b&gt;" style="rounded=1;whiteSpace=wrap;html=1;fillColor=#FFFF66;shadow=0;" vertex="1" parent="1">
          <mxGeometry x="690" y="542.5" width="120" height="80" as="geometry" />
        </mxCell>
        <mxCell id="dH-Tc4P7Z8Kmwp9f1ocL-35" value="" style="edgeStyle=orthogonalEdgeStyle;rounded=0;orthogonalLoop=1;jettySize=auto;html=1;fillColor=#FFFF66;shadow=0;" edge="1" parent="1" source="dH-Tc4P7Z8Kmwp9f1ocL-36" target="dH-Tc4P7Z8Kmwp9f1ocL-38">
          <mxGeometry relative="1" as="geometry" />
        </mxCell>
        <mxCell id="dH-Tc4P7Z8Kmwp9f1ocL-36" value="&lt;b style=&quot;font-size: 14px ; letter-spacing: -0.07px&quot;&gt;Chooses the type of VID&lt;br&gt;1. Perpetual VID&lt;br&gt;2. One-time VID&lt;br&gt;3. Temporary VID&lt;/b&gt;&lt;span style=&quot;font-size: 14px ; letter-spacing: -0.07px ; background-color: rgb(255 , 255 , 255)&quot;&gt;&lt;br&gt;&lt;/span&gt;" style="rounded=1;whiteSpace=wrap;html=1;fillColor=#FFFF66;shadow=0;" vertex="1" parent="1">
          <mxGeometry x="890" y="538.75" width="130" height="87.5" as="geometry" />
        </mxCell>
        <mxCell id="dH-Tc4P7Z8Kmwp9f1ocL-37" value="" style="edgeStyle=orthogonalEdgeStyle;rounded=0;orthogonalLoop=1;jettySize=auto;html=1;fillColor=#FFFF66;shadow=0;" edge="1" parent="1" source="dH-Tc4P7Z8Kmwp9f1ocL-38" target="dH-Tc4P7Z8Kmwp9f1ocL-40">
          <mxGeometry relative="1" as="geometry" />
        </mxCell>
        <mxCell id="dH-Tc4P7Z8Kmwp9f1ocL-38" value="&lt;b style=&quot;font-size: 14px ; letter-spacing: -0.07px&quot;&gt;Clicks on &quot;Submit&quot; button&lt;/b&gt;" style="rounded=1;whiteSpace=wrap;html=1;fillColor=#FFFF66;shadow=0;" vertex="1" parent="1">
          <mxGeometry x="1090" y="547.5" width="120" height="70" as="geometry" />
        </mxCell>
        <mxCell id="dH-Tc4P7Z8Kmwp9f1ocL-39" value="" style="edgeStyle=orthogonalEdgeStyle;rounded=0;orthogonalLoop=1;jettySize=auto;html=1;fillColor=#FFFF66;shadow=0;" edge="1" parent="1" source="dH-Tc4P7Z8Kmwp9f1ocL-40" target="dH-Tc4P7Z8Kmwp9f1ocL-41">
          <mxGeometry relative="1" as="geometry" />
        </mxCell>
        <mxCell id="dH-Tc4P7Z8Kmwp9f1ocL-40" value="&lt;b style=&quot;font-size: 14px ; letter-spacing: -0.07px&quot;&gt;Gets new VID, VID type, VID features and option to send the VID to registered mobile number or email ID&lt;/b&gt;" style="rounded=1;whiteSpace=wrap;html=1;fillColor=#FFFF66;shadow=0;" vertex="1" parent="1">
          <mxGeometry x="1290" y="540" width="160" height="85" as="geometry" />
        </mxCell>
        <mxCell id="dH-Tc4P7Z8Kmwp9f1ocL-41" value="&lt;b style=&quot;font-size: 14px ; letter-spacing: -0.07px&quot;&gt;Gets notification over registered email and mobile number&lt;/b&gt;" style="rounded=1;whiteSpace=wrap;html=1;fillColor=#FFFF66;shadow=0;" vertex="1" parent="1">
          <mxGeometry x="1520" y="547.5" width="120" height="70" as="geometry" />
        </mxCell>
        <mxCell id="dH-Tc4P7Z8Kmwp9f1ocL-42" value="" style="edgeStyle=orthogonalEdgeStyle;rounded=0;orthogonalLoop=1;jettySize=auto;html=1;fillColor=#FFFF66;shadow=0;" edge="1" parent="1" source="dH-Tc4P7Z8Kmwp9f1ocL-43" target="dH-Tc4P7Z8Kmwp9f1ocL-45">
          <mxGeometry relative="1" as="geometry" />
        </mxCell>
        <mxCell id="dH-Tc4P7Z8Kmwp9f1ocL-43" value="&lt;font style=&quot;font-size: 14px&quot;&gt;&lt;b&gt;Navigates to &quot;Revoke VID&quot; and&amp;nbsp;clicks on submit&lt;/b&gt;&lt;/font&gt;" style="rounded=1;whiteSpace=wrap;html=1;fillColor=#FFFF66;shadow=0;align=center;" vertex="1" parent="1">
          <mxGeometry x="690" y="792.5" width="120" height="80" as="geometry" />
        </mxCell>
        <mxCell id="dH-Tc4P7Z8Kmwp9f1ocL-44" value="" style="edgeStyle=orthogonalEdgeStyle;rounded=0;orthogonalLoop=1;jettySize=auto;html=1;fillColor=#FFFF66;shadow=0;" edge="1" parent="1" source="dH-Tc4P7Z8Kmwp9f1ocL-45" target="dH-Tc4P7Z8Kmwp9f1ocL-47">
          <mxGeometry relative="1" as="geometry" />
        </mxCell>
        <mxCell id="dH-Tc4P7Z8Kmwp9f1ocL-45" value="&lt;b style=&quot;font-size: 14px ; letter-spacing: -0.07px&quot;&gt;Chooses from the list of active masked VIDs&lt;/b&gt;" style="rounded=1;whiteSpace=wrap;html=1;fillColor=#FFFF66;shadow=0;" vertex="1" parent="1">
          <mxGeometry x="890" y="795" width="120" height="75" as="geometry" />
        </mxCell>
        <mxCell id="dH-Tc4P7Z8Kmwp9f1ocL-46" value="" style="edgeStyle=orthogonalEdgeStyle;rounded=0;orthogonalLoop=1;jettySize=auto;html=1;fillColor=#FFFF66;shadow=0;" edge="1" parent="1" source="dH-Tc4P7Z8Kmwp9f1ocL-47" target="dH-Tc4P7Z8Kmwp9f1ocL-49">
          <mxGeometry relative="1" as="geometry" />
        </mxCell>
        <mxCell id="dH-Tc4P7Z8Kmwp9f1ocL-47" value="&lt;b style=&quot;font-size: 14px ; letter-spacing: -0.07px&quot;&gt;Accepts consent and&lt;br&gt;Clicks on &quot;revoke VID&quot; button&lt;/b&gt;" style="rounded=1;whiteSpace=wrap;html=1;fillColor=#FFFF66;shadow=0;" vertex="1" parent="1">
          <mxGeometry x="1090" y="797.5" width="120" height="70" as="geometry" />
        </mxCell>
        <mxCell id="dH-Tc4P7Z8Kmwp9f1ocL-48" value="" style="edgeStyle=orthogonalEdgeStyle;rounded=0;orthogonalLoop=1;jettySize=auto;html=1;fillColor=#FFFF66;shadow=0;" edge="1" parent="1" source="dH-Tc4P7Z8Kmwp9f1ocL-49" target="dH-Tc4P7Z8Kmwp9f1ocL-50">
          <mxGeometry relative="1" as="geometry" />
        </mxCell>
        <mxCell id="dH-Tc4P7Z8Kmwp9f1ocL-49" value="&lt;b style=&quot;font-size: 14px ; letter-spacing: -0.07px&quot;&gt;Gets a message: Your 33xxxx VID has been revoked&lt;/b&gt;" style="rounded=1;whiteSpace=wrap;html=1;fillColor=#FFFF66;shadow=0;" vertex="1" parent="1">
          <mxGeometry x="1290" y="797.5" width="120" height="70" as="geometry" />
        </mxCell>
        <mxCell id="dH-Tc4P7Z8Kmwp9f1ocL-50" value="&lt;b style=&quot;font-size: 14px ; letter-spacing: -0.07px&quot;&gt;Gets notification over registered email and mobile number&lt;/b&gt;" style="rounded=1;whiteSpace=wrap;html=1;fillColor=#FFFF66;shadow=0;" vertex="1" parent="1">
          <mxGeometry x="1490" y="797.5" width="120" height="70" as="geometry" />
        </mxCell>
        <mxCell id="dH-Tc4P7Z8Kmwp9f1ocL-51" value="" style="endArrow=classic;html=1;fillColor=#00CC66;entryX=0;entryY=0.5;entryDx=0;entryDy=0;shadow=0;" edge="1" parent="1" target="dH-Tc4P7Z8Kmwp9f1ocL-34">
          <mxGeometry width="50" height="50" relative="1" as="geometry">
            <mxPoint x="650" y="582.5" as="sourcePoint" />
            <mxPoint x="1030" y="652.5" as="targetPoint" />
          </mxGeometry>
        </mxCell>
        <mxCell id="dH-Tc4P7Z8Kmwp9f1ocL-52" value="" style="endArrow=classic;html=1;fillColor=#00CC66;entryX=0;entryY=0.5;entryDx=0;entryDy=0;shadow=0;" edge="1" parent="1">
          <mxGeometry width="50" height="50" relative="1" as="geometry">
            <mxPoint x="650" y="832.4999999999998" as="sourcePoint" />
            <mxPoint x="690" y="832.4999999999998" as="targetPoint" />
          </mxGeometry>
        </mxCell>
        <mxCell id="dH-Tc4P7Z8Kmwp9f1ocL-53" value="" style="endArrow=none;html=1;fillColor=#00CC66;shadow=0;" edge="1" parent="1">
          <mxGeometry width="50" height="50" relative="1" as="geometry">
            <mxPoint x="650" y="832.4999999999998" as="sourcePoint" />
            <mxPoint x="650" y="582.5" as="targetPoint" />
          </mxGeometry>
        </mxCell>
        <mxCell id="dH-Tc4P7Z8Kmwp9f1ocL-54" value="&lt;font style=&quot;font-size: 18px&quot;&gt;&lt;span style=&quot;text-align: left ; text-indent: 0px ; float: none ; display: inline&quot;&gt;&lt;b&gt;Navigates to &quot;manage UIN/VID&quot;&lt;/b&gt;&lt;/span&gt;&lt;/font&gt;" style="rounded=1;whiteSpace=wrap;html=1;fillColor=#FF66B3;" vertex="1" parent="1">
          <mxGeometry x="-300" y="422.5" width="140" height="75" as="geometry" />
        </mxCell>
        <mxCell id="dH-Tc4P7Z8Kmwp9f1ocL-55" value="UIN" style="text;html=1;strokeColor=none;fillColor=none;align=center;verticalAlign=middle;whiteSpace=wrap;rounded=0;" vertex="1" parent="1">
          <mxGeometry x="170" y="422.5" width="40" height="20" as="geometry" />
        </mxCell>
        <mxCell id="dH-Tc4P7Z8Kmwp9f1ocL-56" value="" style="endArrow=none;html=1;fillColor=#00CC66;exitX=1;exitY=0.5;exitDx=0;exitDy=0;shadow=0;" edge="1" parent="1" source="dH-Tc4P7Z8Kmwp9f1ocL-32">
          <mxGeometry width="50" height="50" relative="1" as="geometry">
            <mxPoint x="930" y="622.5" as="sourcePoint" />
            <mxPoint x="650" y="692.5" as="targetPoint" />
          </mxGeometry>
        </mxCell>
        <mxCell id="dH-Tc4P7Z8Kmwp9f1ocL-57" value="UIN/VID" style="text;html=1;strokeColor=none;fillColor=none;align=center;verticalAlign=middle;whiteSpace=wrap;rounded=0;" vertex="1" parent="1">
          <mxGeometry x="160" y="255" width="40" height="20" as="geometry" />
        </mxCell>
        <mxCell id="dH-Tc4P7Z8Kmwp9f1ocL-58" value="UIN" style="text;html=1;strokeColor=none;fillColor=none;align=center;verticalAlign=middle;whiteSpace=wrap;rounded=0;" vertex="1" parent="1">
          <mxGeometry x="160" y="652.5" width="40" height="20" as="geometry" />
        </mxCell>
        <mxCell id="dH-Tc4P7Z8Kmwp9f1ocL-59" value="" style="endArrow=classic;html=1;entryX=0;entryY=0.5;entryDx=0;entryDy=0;" edge="1" parent="1" target="dH-Tc4P7Z8Kmwp9f1ocL-18">
          <mxGeometry width="50" height="50" relative="1" as="geometry">
            <mxPoint x="129.99999999999955" y="462.5" as="sourcePoint" />
            <mxPoint x="110" y="362.5" as="targetPoint" />
          </mxGeometry>
        </mxCell>
        <mxCell id="dH-Tc4P7Z8Kmwp9f1ocL-60" value="" style="endArrow=classic;html=1;" edge="1" parent="1" target="dH-Tc4P7Z8Kmwp9f1ocL-2">
          <mxGeometry width="50" height="50" relative="1" as="geometry">
            <mxPoint x="129.99999999999955" y="302.5" as="sourcePoint" />
            <mxPoint x="210" y="317.5" as="targetPoint" />
            <Array as="points">
              <mxPoint x="200" y="302.5" />
            </Array>
          </mxGeometry>
        </mxCell>
        <mxCell id="dH-Tc4P7Z8Kmwp9f1ocL-61" value="" style="endArrow=none;html=1;" edge="1" parent="1">
          <mxGeometry width="50" height="50" relative="1" as="geometry">
            <mxPoint x="129.99999999999955" y="300" as="sourcePoint" />
            <mxPoint x="129.99999999999955" y="690" as="targetPoint" />
          </mxGeometry>
        </mxCell>
        <mxCell id="dH-Tc4P7Z8Kmwp9f1ocL-62" value="" style="endArrow=none;html=1;exitX=1;exitY=0.5;exitDx=0;exitDy=0;" edge="1" parent="1" source="dH-Tc4P7Z8Kmwp9f1ocL-16">
          <mxGeometry width="50" height="50" relative="1" as="geometry">
            <mxPoint x="490" y="450" as="sourcePoint" />
            <mxPoint x="129.99999999999955" y="463" as="targetPoint" />
          </mxGeometry>
        </mxCell>
      </root>
    </mxGraphModel>
  </diagram>
</mxfile>
